<svg xmlns="http://www.w3.org/2000/svg" fill="none" viewBox="0 0 500 100">
  <path fill="#242424" stroke="ivory" stroke-width="5" d="M10 2.5h480a7.5 7.5 0 017.5 7.5v80a7.5 7.5 0 01-7.5 7.5H10A7.5 7.5 0 012.5 90V10A7.5 7.5 0 0110 2.5z"/>
  <path fill="ivory" d="M228.11 70.5l243 .353V76.5H225l3.11-6zM142.63 67.384c-2.336 0-4.4-.496-6.192-1.488-1.76-.992-3.12-2.4-4.08-4.224-.96-1.824-1.44-3.952-1.44-6.384 0-2.432.496-4.576 1.488-6.432 1.024-1.888 2.448-3.344 4.272-4.368 1.824-1.024 3.92-1.536 6.288-1.536 1.248 0 2.496.176 3.744.528 1.28.352 2.4.832 3.36 1.44 1.024.672 1.536 1.52 1.536 2.544 0 .704-.176 1.28-.528 1.728-.32.416-.752.624-1.296.624-.352 0-.72-.08-1.104-.24a9.668 9.668 0 01-1.152-.576 11.398 11.398 0 00-2.016-.96c-.64-.256-1.376-.384-2.208-.384-1.984 0-3.52.656-4.608 1.968-1.056 1.28-1.584 3.136-1.584 5.568 0 2.4.528 4.256 1.584 5.568 1.088 1.28 2.624 1.92 4.608 1.92.8 0 1.504-.112 2.112-.336.64-.256 1.344-.592 2.112-1.008.48-.288.896-.496 1.248-.624.352-.16.704-.24 1.056-.24.512 0 .944.224 1.296.672.352.448.528 1.008.528 1.68 0 .544-.128 1.024-.384 1.44-.224.384-.608.736-1.152 1.056-.992.64-2.144 1.152-3.456 1.536a15.492 15.492 0 01-4.032.528zm23.725 0c-2.4 0-4.512-.496-6.336-1.488-1.792-.992-3.184-2.416-4.176-4.272-.992-1.856-1.488-4.016-1.488-6.48 0-2.464.496-4.608 1.488-6.432.992-1.856 2.384-3.28 4.176-4.272 1.824-.992 3.936-1.488 6.336-1.488 2.4 0 4.496.496 6.288 1.488 1.824.992 3.216 2.416 4.176 4.272.992 1.824 1.488 3.968 1.488 6.432 0 2.464-.496 4.624-1.488 6.48-.96 1.856-2.352 3.28-4.176 4.272-1.792.992-3.888 1.488-6.288 1.488zm-.048-4.656c1.952 0 3.44-.64 4.464-1.92 1.024-1.28 1.536-3.168 1.536-5.664 0-2.464-.512-4.336-1.536-5.616-1.024-1.312-2.496-1.968-4.416-1.968-1.92 0-3.408.656-4.464 1.968-1.024 1.28-1.536 3.152-1.536 5.616 0 2.496.512 4.384 1.536 5.664 1.024 1.28 2.496 1.92 4.416 1.92zm36.538-29.808c.896 0 1.632.256 2.208.768.576.512.864 1.184.864 2.016v28.704c0 .864-.272 1.552-.816 2.064-.544.512-1.264.768-2.16.768-.896 0-1.616-.256-2.16-.768s-.816-1.2-.816-2.064v-1.2c-.704 1.312-1.728 2.336-3.072 3.072-1.312.736-2.816 1.104-4.512 1.104-2.016 0-3.824-.512-5.424-1.536-1.568-1.024-2.8-2.464-3.696-4.32-.864-1.888-1.296-4.048-1.296-6.48 0-2.432.432-4.56 1.296-6.384.896-1.824 2.128-3.232 3.696-4.224s3.376-1.488 5.424-1.488c1.696 0 3.2.352 4.512 1.056a7.326 7.326 0 013.024 2.976V35.608c0-.8.256-1.44.768-1.92.544-.512 1.264-.768 2.16-.768zm-8.88 29.808c1.92 0 3.392-.656 4.416-1.968 1.056-1.312 1.584-3.184 1.584-5.616 0-2.432-.528-4.288-1.584-5.568-1.024-1.312-2.48-1.968-4.368-1.968-1.92 0-3.408.64-4.464 1.92-1.056 1.28-1.584 3.12-1.584 5.52 0 2.432.528 4.32 1.584 5.664 1.056 1.344 2.528 2.016 4.416 2.016zm34.492-17.952c.256-.576.592-.992 1.008-1.248a2.615 2.615 0 011.44-.432c.736 0 1.392.256 1.968.768.608.48.912 1.088.912 1.824 0 .352-.096.72-.288 1.104l-13.104 27.456c-.544 1.088-1.392 1.632-2.544 1.632a2.99 2.99 0 01-1.968-.72 2.137 2.137 0 01-.816-1.728c0-.352.096-.752.288-1.2l3.264-6.864-8.928-18.576c-.16-.32-.24-.688-.24-1.104 0-.736.304-1.36.912-1.872a3.369 3.369 0 012.16-.768c.544 0 1.04.144 1.488.432.448.256.8.672 1.056 1.248l6.72 14.832 6.672-14.784zm40.625.048c.224-.576.544-1.008.96-1.296a2.615 2.615 0 011.44-.432c.736 0 1.392.256 1.968.768.608.48.912 1.088.912 1.824 0 .416-.08.784-.24 1.104l-7.92 18.576a2.848 2.848 0 01-1.2 1.392c-.512.32-1.088.48-1.728.48-.608 0-1.184-.16-1.728-.48-.512-.32-.896-.784-1.152-1.392l-5.712-13.728-5.52 13.728a2.848 2.848 0 01-1.2 1.392c-.512.32-1.088.48-1.728.48-.608 0-1.184-.16-1.728-.48a2.848 2.848 0 01-1.2-1.392l-7.872-18.576c-.16-.416-.24-.768-.24-1.056 0-.736.32-1.36.96-1.872.64-.544 1.344-.816 2.112-.816.544 0 1.04.144 1.488.432.448.288.784.72 1.008 1.296l5.664 14.64 5.808-14.496c.256-.608.624-1.056 1.104-1.344.48-.32 1.008-.48 1.584-.48.576 0 1.104.16 1.584.48.48.288.848.736 1.104 1.344l5.856 14.544 5.616-14.64zm12.358 22.464c-.864 0-1.584-.24-2.16-.72-.544-.512-.816-1.232-.816-2.16V45.88c0-.928.272-1.632.816-2.112.576-.48 1.296-.72 2.16-.72.864 0 1.584.24 2.16.72.576.48.864 1.184.864 2.112v18.528c0 .928-.288 1.648-.864 2.16-.576.48-1.296.72-2.16.72zm0-28.512c-1.088 0-1.952-.288-2.592-.864-.64-.608-.96-1.392-.96-2.352s.32-1.728.96-2.304c.64-.576 1.504-.864 2.592-.864 1.056 0 1.904.288 2.544.864.672.576 1.008 1.344 1.008 2.304 0 .96-.32 1.744-.96 2.352-.64.576-1.504.864-2.592.864zm12.187 28.512c-.864 0-1.584-.24-2.16-.72-.544-.512-.816-1.232-.816-2.16V35.752c0-.928.272-1.632.816-2.112.576-.48 1.296-.72 2.16-.72.864 0 1.584.24 2.16.72.576.48.864 1.184.864 2.112v28.656c0 .928-.288 1.648-.864 2.16-.576.48-1.296.72-2.16.72zm12.188 0c-.864 0-1.584-.24-2.16-.72-.544-.512-.816-1.232-.816-2.16V35.752c0-.928.272-1.632.816-2.112.576-.48 1.296-.72 2.16-.72.864 0 1.584.24 2.16.72.576.48.864 1.184.864 2.112v28.656c0 .928-.288 1.648-.864 2.16-.576.48-1.296.72-2.16.72zm12.187 0c-.864 0-1.584-.24-2.16-.72-.544-.512-.816-1.232-.816-2.16V45.88c0-.928.272-1.632.816-2.112.576-.48 1.296-.72 2.16-.72.864 0 1.584.24 2.16.72.576.48.864 1.184.864 2.112v18.528c0 .928-.288 1.648-.864 2.16-.576.48-1.296.72-2.16.72zm0-28.512c-1.088 0-1.952-.288-2.592-.864-.64-.608-.96-1.392-.96-2.352s.32-1.728.96-2.304c.64-.576 1.504-.864 2.592-.864 1.056 0 1.904.288 2.544.864.672.576 1.008 1.344 1.008 2.304 0 .96-.32 1.744-.96 2.352-.64.576-1.504.864-2.592.864zm19.388 4.176c3.264 0 5.68.816 7.248 2.448 1.6 1.6 2.4 4.048 2.4 7.344v11.712c0 .864-.256 1.552-.768 2.064-.512.48-1.216.72-2.112.72-.832 0-1.52-.256-2.064-.768-.512-.512-.768-1.184-.768-2.016V63.4a6.227 6.227 0 01-2.592 2.928c-1.152.704-2.496 1.056-4.032 1.056-1.568 0-2.992-.32-4.272-.96-1.28-.64-2.288-1.52-3.024-2.64-.736-1.12-1.104-2.368-1.104-3.744 0-1.728.432-3.088 1.296-4.08.896-.992 2.336-1.712 4.32-2.16 1.984-.448 4.72-.672 8.208-.672h1.2v-1.104c0-1.568-.336-2.704-1.008-3.408-.672-.736-1.76-1.104-3.264-1.104-.928 0-1.872.144-2.832.432-.96.256-2.096.64-3.408 1.152-.832.416-1.44.624-1.824.624a1.878 1.878 0 01-1.44-.624c-.352-.416-.528-.96-.528-1.632 0-.544.128-1.008.384-1.392.288-.416.752-.8 1.392-1.152 1.12-.608 2.448-1.088 3.984-1.44a21 21 0 014.608-.528zm-1.488 20.112c1.6 0 2.896-.528 3.888-1.584 1.024-1.088 1.536-2.48 1.536-4.176v-1.008h-.864c-2.144 0-3.808.096-4.992.288-1.184.192-2.032.528-2.544 1.008s-.768 1.136-.768 1.968c0 1.024.352 1.872 1.056 2.544.736.64 1.632.96 2.688.96zm45.122-20.112c2.56 0 4.512.768 5.856 2.304 1.376 1.504 2.064 3.952 2.064 7.344v11.808c0 .928-.288 1.648-.864 2.16-.544.48-1.264.72-2.16.72-.864 0-1.584-.24-2.16-.72-.544-.512-.816-1.232-.816-2.16V52.6c0-1.76-.32-3.008-.96-3.744-.608-.768-1.552-1.152-2.832-1.152-1.568 0-2.816.544-3.744 1.632-.928 1.056-1.392 2.512-1.392 4.368v10.704c0 .928-.288 1.648-.864 2.16-.544.48-1.248.72-2.112.72-.864 0-1.584-.24-2.16-.72-.576-.512-.864-1.232-.864-2.16V52.6c0-1.76-.32-3.008-.96-3.744-.608-.768-1.552-1.152-2.832-1.152-1.568 0-2.816.544-3.744 1.632-.896 1.056-1.344 2.512-1.344 4.368v10.704c0 .928-.288 1.648-.864 2.16-.576.48-1.296.72-2.16.72-.864 0-1.584-.24-2.16-.72-.544-.512-.816-1.232-.816-2.16V45.832c0-.896.288-1.584.864-2.064.576-.48 1.296-.72 2.16-.72.832 0 1.504.24 2.016.72.544.448.816 1.104.816 1.968v1.152c.736-1.28 1.712-2.256 2.928-2.928 1.248-.672 2.672-1.008 4.272-1.008 3.52 0 5.872 1.472 7.056 4.416.704-1.344 1.744-2.416 3.12-3.216 1.376-.8 2.928-1.2 4.656-1.2zm22.514 24.432c-3.488 0-6.304-.688-8.448-2.064-1.024-.608-1.536-1.472-1.536-2.592 0-.64.176-1.152.528-1.536.352-.416.784-.624 1.296-.624.544 0 1.296.256 2.256.768 1.024.48 1.952.848 2.784 1.104.864.256 1.952.384 3.264.384 1.344 0 2.384-.224 3.12-.672.768-.448 1.152-1.072 1.152-1.872 0-.544-.16-.976-.48-1.296-.288-.32-.832-.608-1.632-.864-.768-.288-1.952-.608-3.552-.96-2.848-.576-4.896-1.392-6.144-2.448-1.216-1.056-1.824-2.512-1.824-4.368a6.2 6.2 0 011.248-3.792c.832-1.152 1.968-2.032 3.408-2.64 1.472-.64 3.136-.96 4.992-.96 1.344 0 2.64.176 3.888.528 1.248.32 2.368.8 3.36 1.44 1.024.64 1.536 1.488 1.536 2.544 0 .64-.176 1.184-.528 1.632-.352.416-.784.624-1.296.624-.352 0-.704-.064-1.056-.192-.32-.16-.736-.384-1.248-.672-.928-.48-1.728-.832-2.4-1.056-.672-.256-1.504-.384-2.496-.384-1.184 0-2.128.24-2.832.72-.672.48-1.008 1.136-1.008 1.968 0 .8.352 1.408 1.056 1.824.704.416 2.064.832 4.08 1.248 2.144.448 3.824.96 5.04 1.536 1.216.576 2.08 1.296 2.592 2.16.544.864.816 1.968.816 3.312 0 2.176-.912 3.92-2.736 5.232-1.792 1.312-4.192 1.968-7.2 1.968zm25.505 0c-2.4 0-4.512-.496-6.336-1.488-1.792-.992-3.184-2.416-4.176-4.272-.992-1.856-1.488-4.016-1.488-6.48 0-2.464.496-4.608 1.488-6.432.992-1.856 2.384-3.28 4.176-4.272 1.824-.992 3.936-1.488 6.336-1.488 2.4 0 4.496.496 6.288 1.488 1.824.992 3.216 2.416 4.176 4.272.992 1.824 1.488 3.968 1.488 6.432 0 2.464-.496 4.624-1.488 6.48-.96 1.856-2.352 3.28-4.176 4.272-1.792.992-3.888 1.488-6.288 1.488zm-.048-4.656c1.952 0 3.44-.64 4.464-1.92 1.024-1.28 1.536-3.168 1.536-5.664 0-2.464-.512-4.336-1.536-5.616-1.024-1.312-2.496-1.968-4.416-1.968-1.92 0-3.408.656-4.464 1.968-1.024 1.28-1.536 3.152-1.536 5.616 0 2.496.512 4.384 1.536 5.664 1.024 1.28 2.496 1.92 4.416 1.92zm30.585-19.776c2.816 0 4.912.8 6.288 2.4 1.376 1.6 2.064 4.016 2.064 7.248v11.808c0 .896-.272 1.6-.816 2.112-.512.512-1.232.768-2.16.768-.928 0-1.664-.256-2.208-.768-.544-.512-.816-1.216-.816-2.112V52.936c0-1.824-.352-3.152-1.056-3.984-.672-.832-1.744-1.248-3.216-1.248-1.728 0-3.12.544-4.176 1.632-1.024 1.088-1.536 2.544-1.536 4.368v10.704c0 .896-.272 1.6-.816 2.112-.544.512-1.28.768-2.208.768-.928 0-1.664-.256-2.208-.768-.512-.512-.768-1.216-.768-2.112V45.832c0-.832.272-1.504.816-2.016.544-.512 1.28-.768 2.208-.768.832 0 1.504.256 2.016.768.544.48.816 1.12.816 1.92v1.296a8.117 8.117 0 013.216-3.024c1.344-.704 2.864-1.056 4.56-1.056z"/>
  <rect width="15" height="100" x="14" fill="ivory" rx="3"/>
  <rect width="15" height="75" x="37" y="25" fill="ivory" rx="3"/>
  <rect width="15" height="50" x="60" y="50" fill="ivory" rx="3"/>
  <rect width="15" height="25" x="83" y="75" fill="ivory" rx="3"/>
  <rect width="15" height="15" x="106" y="85" fill="ivory" rx="3"/>
</svg>
